<?xml version="1.0" encoding="utf-8"?>
<!-- Generator: Adobe Illustrator 20.1.0, SVG Export Plug-In . SVG Version: 6.00 Build 0)  -->
<!DOCTYPE svg PUBLIC "-//W3C//DTD SVG 1.1//EN" "http://www.w3.org/Graphics/SVG/1.1/DTD/svg11.dtd">
<svg version="1.1" id="Layer_1" xmlns="http://www.w3.org/2000/svg" xmlns:xlink="http://www.w3.org/1999/xlink" x="0px" y="0px"
	 viewBox="0 0 531.5 82.1" enable-background="new 0 0 531.5 82.1" xml:space="preserve">
<g>
	<path fill="#FFFFFF" d="M148.2,69.5c-5,2-9.6,3-13.8,3c-7.4,0-14-2.4-19.8-7.1c-7.4-6-11.2-13.9-11.2-23.6
		c0-9.7,3.7-17.6,11.2-23.6c5.8-4.7,12.5-7.1,19.9-7.1c4.1,0,8.6,1,13.7,3v18.2c-1.4-1.8-2.9-3.1-4.4-4c-2.7-1.6-5.6-2.5-8.8-2.5
		c-4,0-7.4,1.2-10.3,3.6c-3.7,3-5.5,7.1-5.5,12.4c0,5.2,1.8,9.3,5.5,12.3c2.9,2.4,6.4,3.6,10.3,3.6c3.1,0,6-0.8,8.8-2.5
		c1.5-0.9,2.9-2.2,4.4-4V69.5z"/>
	<path fill="#FFFFFF" d="M207.8,41.6c0,6.1-1.8,11.7-5.5,16.9c-3.7,5.2-8.4,8.8-14.1,10.8c-3,1.1-6.1,1.6-9.3,1.6h-22.5V12.3h22.5
		c5.5,0,10.6,1.5,15.3,4.6c4.6,3,8.1,7,10.6,11.9C206.8,33,207.8,37.2,207.8,41.6z M192,41.6c0-4-1.1-7.6-3.4-10.6
		c-3-4-7.5-6-13.5-6h-3.5v33.2h3.5c6,0,10.5-2,13.5-6C190.9,49.2,192,45.7,192,41.6z"/>
	<path fill="#FFFFFF" d="M266.1,70.9h-16.3L246,60.7h-21l-4,10.2h-16.1l22.5-58.6H244L266.1,70.9z M241.9,49.1l-6.3-18.7l-6.4,18.7
		H241.9z"/>
	<path fill="#FFFFFF" d="M320.4,70.9h-18.9L287,48.4v22.5h-15.2V12.3h23.7c6.9,0,12,2.1,15.4,6.2c2.7,3.3,4,7.3,4,11.8
		c0,5.2-1.5,9.3-4.6,12.4c-2,2-4.7,3.3-8.2,4.1L320.4,70.9z M299,31.2c0-2.1-0.8-3.8-2.3-5.3c-1.4-1.3-3.7-2-6.9-2H287v14.6h2.8
		c3.2,0,5.5-0.7,6.9-2C298.3,35.1,299,33.3,299,31.2z"/>
	<path fill="#FFFFFF" d="M360.3,25h-12.6v45.9h-15.2V25h-12.4V12.3h40.2V25z"/>
</g>
<g>
	<path fill="#FFFFFF" d="M526,42.9l-21.9-2.2c0.2,0.8,0.2,1.5,0.2,2.2s-0.1,1.4-0.2,2.2L526,42.9z"/>
	<g>
		<path fill="#FFFFFF" d="M483.7,53.3c1.3-0.1,2.6-0.2,3.8-0.3V32.9c-1.2-0.1-2.5-0.2-3.8-0.3V53.3z"/>
		<path fill="#FFFFFF" d="M477.8,32.5v21c0.5,0,1.1,0,1.6,0c0.7,0,1.5,0,2.2,0V32.5c-0.7,0-1.5,0-2.2,0
			C478.9,32.4,478.4,32.5,477.8,32.5z"/>
		<path fill="#FFFFFF" d="M489.6,33.1v19.6c7.7-1.2,12.9-4.2,12.9-9.8C502.5,37.3,497.3,34.4,489.6,33.1z"/>
		<path fill="#FFFFFF" d="M419.7,25.8L389,20.7v0l-11.4,22.4L389,65.4v0l30.6-5.1l10.7-12.8c13.4,2.6,32.2,5.4,45.4,5.9V32.5
			c-13.2,0.5-32.2,3.3-45.5,5.9L419.7,25.8z M414.8,56.3l-22.2,3.2v0L385.5,46h37.7L414.8,56.3z"/>
	</g>
</g>
<g>
	<polygon fill="#FFFFFF" points="12.7,76.2 0,16.5 19.6,16.5 16.8,7.2 54.2,7.2 51.4,16.5 71,16.5 58.3,76.2 	"/>
	<g>
		<defs>
			<polygon id="SVGID_1_" points="12.7,76.1 0,16.4 19.6,16.4 16.8,7.1 54.2,7.1 51.4,16.4 71,16.4 58.3,76.1 			"/>
		</defs>
		<clipPath id="SVGID_2_">
			<use xlink:href="#SVGID_1_"  overflow="visible"/>
		</clipPath>
		<path clip-path="url(#SVGID_2_)" fill="#07A35A" d="M27.3,74.7c0-16.2,19.7-44.2,46.6-62.6v64.1H27.3"/>
		<path clip-path="url(#SVGID_2_)" fill="#07A35A" d="M69.3,15.1C27.1,33.2,8,69.7,8,69.7l-1-14.9c0,0,28.6-29.6,63.1-41.3
			L69.3,15.1z"/>
		<path clip-path="url(#SVGID_2_)" fill="#07A35A" d="M65.5,14.6C26.2,23.9,4.1,45.9,4.1,45.9l-2.3-8.8c0,0,31.9-18,64.1-23.8
			L65.5,14.6z"/>
	</g>
	<circle fill="#FFFFFF" cx="45.4" cy="59.4" r="9.1"/>
</g>
</svg>
